<?xml version="1.0" encoding="UTF-8"?>
<svg id="Layer_2" data-name="Layer 2" xmlns="http://www.w3.org/2000/svg" viewBox="0 0 309.42 117.1">
  <defs>
    <style>
      .cls-1, .cls-2 {
        fill: #fff;
      }

      .cls-2 {
        fill-rule: evenodd;
      }
    </style>
  </defs>
  <g id="Layer_1-2" data-name="Layer 1">
    <g>
      <g>
        <path class="cls-1" d="m36.07,5.94c-29.57,22.27-10.86,69.75,13.87,111.16-3.22-15.01-19.8-65.8,1.69-86.44,11.26-10.82,30.92-14.12,48.16,13.66C90.05-7.31,49.26-3.99,36.07,5.94Z"/>
        <path class="cls-1" d="m30.25,7.73C-.1,22.2-4.32,47.13,3.31,66.43c8.07,20.4,24.91,29.18,37.59,42.21-13.49-22.41-19.74-37.64-22.58-51.8-4.91-24.48,2.13-41.1,11.93-49.12Z"/>
        <path class="cls-1" d="m47.93,88.52c-2.77-17.24-7.74-52.18,15.04-59.68,21.38-7.04,43.82,17.44,39.06,47.2-3.28,20.53-13.33,28.13-14.4,29.38,10.48-15.24,12.44-40.88.48-53.14-12.47-12.78-26.83,1.41-27.56,16.5-.65,13.49-8.08,18.67-12.63,19.74Z"/>
      </g>
      <g>
        <g>
          <path class="cls-1" d="m155.29,55.18c-.31.33-.72.7-1.2,1.12-.49.42-1.03.84-1.64,1.27-.61.43-1.26.84-1.97,1.25-.7.41-1.42.76-2.16,1.08-.73.31-1.47.57-2.21.75-.74.19-1.46.28-2.15.28-.48,0-.96-.08-1.45-.25-.49-.17-.93-.47-1.33-.91-.4-.44-.72-1.05-.98-1.83-.26-.78-.38-1.79-.38-3.03,0-.52.04-1.09.11-1.7.07-.61.17-1.26.29-1.97-.84,1.69-1.79,3.19-2.84,4.48-1.06,1.3-2.18,2.38-3.37,3.26-1.19.88-2.42,1.54-3.7,1.99-1.27.45-2.55.67-3.82.67-1.39,0-2.72-.24-3.97-.73-1.25-.49-2.36-1.21-3.32-2.18s-1.72-2.17-2.28-3.61-.84-3.12-.84-5.04c0-1.45.17-2.97.51-4.56.34-1.59.83-3.19,1.47-4.81.64-1.62,1.42-3.22,2.34-4.81s1.96-3.1,3.12-4.53c1.17-1.43,2.45-2.76,3.83-3.98s2.87-2.28,4.44-3.17c1.57-.89,3.23-1.59,4.97-2.1s3.54-.76,5.42-.76c.51,0,.92.04,1.22.12.31.08.54.19.7.31.16.13.26.26.3.39.04.13.07.26.07.36,0,.08,0,.14-.01.2s-.01.11-.01.13v.11c.41.24.82.39,1.24.44s.83.1,1.24.13c.4.04.79.12,1.15.24s.67.36.94.71c.27.35.48.87.64,1.54.16.67.24,1.59.24,2.74,0,.9-.09,1.91-.26,3.03s-.4,2.3-.68,3.53c-.28,1.23-.6,2.47-.96,3.73-.35,1.26-.7,2.48-1.06,3.66-.35,1.18-.69,2.3-1.02,3.35-.33,1.05-.61,1.96-.83,2.74-.04.66-.08,1.27-.11,1.84-.03.57-.04,1.16-.04,1.77,0,.48.01.87.03,1.18.02.31.06.55.12.73.06.18.14.3.25.37.11.07.24.1.41.1.3,0,.68-.08,1.13-.24.46-.16.94-.36,1.46-.61.52-.25,1.06-.52,1.62-.83.56-.31,1.1-.61,1.62-.92.52-.31,1-.59,1.45-.84.45-.26.82-.46,1.12-.63l1.15,4.38Zm-10.63-29.06c-.52-.15-1.07-.26-1.63-.33-.56-.07-1.11-.1-1.63-.1-1.21,0-2.41.23-3.6.7-1.18.46-2.33,1.1-3.45,1.9-1.12.8-2.18,1.75-3.19,2.83-1.01,1.09-1.96,2.26-2.83,3.51-.88,1.25-1.67,2.55-2.37,3.9-.7,1.35-1.31,2.69-1.82,4.03-.51,1.34-.9,2.64-1.17,3.91-.27,1.27-.41,2.43-.41,3.49,0,2.11.42,3.75,1.27,4.91.85,1.16,2.16,1.74,3.94,1.74,1.11,0,2.16-.23,3.16-.7,1-.46,1.92-1.07,2.78-1.83s1.64-1.61,2.35-2.56c.71-.95,1.33-1.91,1.87-2.89.53-.97.97-1.91,1.31-2.82.34-.91.59-1.69.74-2.35l4.68-17.35Z"/>
          <path class="cls-1" d="m152.77,55.52c0-.99.06-2.13.18-3.43.12-1.3.27-2.61.45-3.96.18-1.34.38-2.63.61-3.88s.44-2.31.65-3.19c.16-.69.48-1.27.96-1.73.47-.46,1.11-.7,1.92-.7s1.37.25,1.69.74.47,1.15.47,1.98c0,.22-.02.53-.07.91-.04.38-.1.8-.17,1.26-.07.46-.14.93-.21,1.42-.07.49-.15.94-.21,1.35-.07.41-.12.77-.17,1.08s-.07.51-.07.62h.45c.09-.17.23-.43.43-.8.19-.37.42-.79.67-1.27.26-.48.53-.99.82-1.52.29-.53.57-1.04.82-1.53.25-.49.49-.92.7-1.29.21-.37.37-.65.47-.83.48-.81,1.03-1.36,1.64-1.66.61-.3,1.3-.45,2.05-.45s1.34.31,1.79.94c.44.63.66,1.5.66,2.61,0,.17-.03.44-.1.83-.07.39-.15.85-.26,1.39-.11.54-.22,1.13-.35,1.78s-.24,1.3-.35,1.98c-.1.67-.19,1.34-.26,2-.07.66-.1,1.27-.1,1.82,0,.93.12,1.69.35,2.29.23.6.6.9,1.09.9.22,0,.48-.07.78-.2.29-.13.61-.31.94-.53s.68-.47,1.03-.75c.35-.28.7-.58,1.05-.88.79-.7,1.63-1.5,2.5-2.38l.38,5.03-1.12.85c-.61.46-1.24.93-1.88,1.39-.64.46-1.3.88-1.99,1.25-.69.37-1.41.67-2.16.9-.75.23-1.54.35-2.36.35s-1.52-.6-2.08-1.79c-.56-1.19-.84-2.93-.84-5.23,0-.9.06-1.87.18-2.91.12-1.04.27-2.16.45-3.36h-.36l-5.89,11.69c-.3.61-.64,1.03-1.01,1.26-.37.22-.81.34-1.3.34-.61,0-1.11-.13-1.48-.39-.37-.26-.66-.61-.87-1.06-.2-.44-.34-.94-.4-1.51-.07-.56-.1-1.14-.1-1.74Z"/>
          <path class="cls-1" d="m170.73,60.22c0-.24.03-.66.1-1.27.07-.61.16-1.34.27-2.2.11-.86.25-1.82.42-2.87.16-1.05.34-2.12.54-3.23s.4-2.2.63-3.28c.22-1.09.46-2.11.7-3.06.24-.95.48-1.79.73-2.53s.49-1.3.73-1.71c.21-.34.46-.61.74-.81.28-.19.6-.34.93-.43.34-.09.69-.15,1.06-.17s.73-.03,1.09-.03c.52,0,.9.16,1.14.47.23.31.35.64.35.99,0,.18-.04.46-.12.85-.08.39-.18.81-.3,1.26-.12.45-.24.88-.36,1.28-.12.41-.21.7-.27.9l-1.26,3.6c.84-.13,1.65-.23,2.43-.28.78-.05,1.63-.15,2.56-.29.93-.14,1.98-.38,3.15-.72,1.17-.34,2.56-.87,4.18-1.58v4.32c-.99.54-1.98.96-2.98,1.25-1,.29-1.9.51-2.71.64-.94.17-1.87.25-2.76.27.37.97.7,1.99.99,3.03.25.9.48,1.9.69,3,.2,1.1.3,2.21.3,3.32,0,.19-.02.65-.06,1.36-.04.71-.13,1.55-.27,2.51-.14.96-.37,1.97-.67,3.05-.31,1.07-.73,2.05-1.26,2.94s-1.2,1.63-2,2.21c-.8.58-1.78.88-2.93.88-1.05,0-1.94-.31-2.67-.92-.73-.61-1.33-1.51-1.79-2.68-.46-1.17-.79-2.6-.99-4.29-.2-1.69-.3-3.62-.3-5.78Zm4.99-27.89c0-.34.07-.73.22-1.17.15-.43.39-.84.73-1.22s.79-.7,1.35-.97,1.26-.39,2.1-.39c.52,0,1.02.06,1.48.18.46.12.87.3,1.21.55s.62.57.82.98c.2.4.3.88.3,1.44,0,.51-.08,1-.25,1.48-.17.48-.43.91-.79,1.28s-.81.68-1.36.91c-.55.23-1.2.35-1.97.35-1.32,0-2.29-.31-2.92-.93-.63-.62-.94-1.45-.94-2.48Zm1.44,17.85c-.39,2.32-.72,4.67-.99,7.04-.27,2.37-.4,4.81-.4,7.33,0,.82.05,1.51.16,2.06.11.55.24.99.39,1.33.16.34.31.58.47.72.16.14.3.21.42.21.49,0,.89-.27,1.18-.81.29-.54.51-1.21.65-2,.14-.79.23-1.65.27-2.57.04-.92.06-1.76.06-2.53,0-.43-.03-.92-.1-1.47-.07-.55-.15-1.11-.25-1.7-.1-.58-.21-1.18-.35-1.78s-.27-1.18-.4-1.75c-.33-1.32-.7-2.67-1.1-4.07Z"/>
          <path class="cls-1" d="m202.51,43.38c.43.87.76,1.79.98,2.75.22.97.33,1.89.33,2.78s-.1,1.77-.29,2.67c-.2.9-.48,1.77-.84,2.61-.37.84-.82,1.63-1.35,2.36-.53.73-1.14,1.37-1.82,1.91-.68.54-1.43.97-2.24,1.28-.81.31-1.67.47-2.59.47-1.32,0-2.45-.29-3.38-.87-.94-.58-1.7-1.33-2.3-2.26-.6-.93-1.04-1.98-1.31-3.15-.28-1.17-.42-2.35-.42-3.55,0-1.65.25-3.19.74-4.62.49-1.43,1.2-2.67,2.12-3.73s2.05-1.89,3.38-2.5,2.83-.91,4.5-.91c1.42,0,2.76.22,4,.66,1.24.44,2.41,1.03,3.49,1.78,1.09.74,2.1,1.59,3.03,2.55.94.96,1.81,1.95,2.62,2.97l-.43,3.17c-.4-.54-.95-1.12-1.64-1.75-.69-.63-1.42-1.24-2.19-1.84-.77-.6-1.53-1.16-2.28-1.7-.75-.53-1.39-.98-1.93-1.34l-.18.25Zm-6.95,12.52c.51,0,1-.26,1.48-.78.48-.52.9-1.17,1.26-1.96.36-.79.65-1.66.87-2.61.22-.95.33-1.86.33-2.73,0-.69-.05-1.33-.16-1.92-.11-.59-.26-1.1-.47-1.54s-.48-.78-.81-1.03c-.33-.25-.73-.38-1.19-.38-.61,0-1.2.26-1.75.79-.55.52-1.04,1.2-1.46,2.01-.42.82-.75,1.72-.99,2.71-.24.99-.36,1.94-.36,2.85,0,.63.06,1.22.18,1.77.12.55.31,1.04.56,1.45.26.41.59.74,1.01.99.42.25.92.37,1.51.37Z"/>
          <path class="cls-1" d="m245.15,52.62c-.73.31-1.45.73-2.14,1.25-.69.52-1.39,1.08-2.09,1.7-.7.61-1.43,1.26-2.19,1.94-.76.68-1.57,1.36-2.45,2.02-.88.67-1.83,1.3-2.87,1.91-1.03.61-2.18,1.14-3.43,1.6-1.25.46-2.63.82-4.14,1.09-1.51.27-3.17.4-5,.4-2.02,0-3.85-.41-5.47-1.22-1.63-.82-3.02-1.92-4.17-3.3s-2.04-3-2.66-4.83c-.62-1.84-.93-3.77-.93-5.79,0-1.38.15-2.86.45-4.44.3-1.58.73-3.19,1.29-4.83.56-1.64,1.25-3.28,2.06-4.91s1.73-3.2,2.75-4.7c1.03-1.5,2.15-2.89,3.38-4.17s2.54-2.4,3.93-3.35,2.86-1.7,4.41-2.24c1.54-.54,3.15-.81,4.81-.81,1.08,0,2.17.19,3.28.57,1.11.38,2.11.97,2.99,1.76s1.61,1.8,2.17,3.01c.56,1.21.84,2.64.84,4.29,0,1.11-.18,2.23-.53,3.36-.35,1.13-.84,2.22-1.45,3.26-.61,1.04-1.34,2.02-2.17,2.93s-1.73,1.7-2.69,2.37c-.96.67-1.96,1.19-2.99,1.58-1.03.39-2.07.58-3.1.58-1.36,0-2.38-.18-3.06-.55-.67-.37-1.01-.9-1.01-1.58,0-.12,0-.26-.01-.43,0-.16-.01-.34-.01-.52,0-.27.02-.55.05-.84.03-.29.09-.56.18-.8.09-.24.22-.43.39-.58.17-.15.41-.22.71-.22.18,0,.34.03.47.08.13.05.28.11.45.17s.36.12.6.17.53.08.89.08c.96,0,1.93-.21,2.91-.63.98-.42,1.87-1.01,2.65-1.77.79-.76,1.43-1.67,1.93-2.73s.75-2.22.75-3.49c0-.67-.09-1.31-.27-1.92-.18-.61-.47-1.14-.88-1.6-.4-.46-.93-.82-1.56-1.1-.64-.28-1.41-.42-2.33-.42-1.08,0-2.13.24-3.16.71s-2.01,1.11-2.96,1.92c-.94.81-1.84,1.77-2.69,2.88-.85,1.11-1.63,2.3-2.35,3.56s-1.37,2.59-1.94,3.96c-.58,1.37-1.07,2.74-1.47,4.1-.41,1.36-.72,2.69-.93,3.97-.22,1.28-.33,2.46-.33,3.54,0,1.54.19,2.89.57,4.03s.92,2.1,1.63,2.87c.7.76,1.57,1.33,2.58,1.71,1.02.37,2.16.56,3.44.56,1.59,0,3.07-.2,4.44-.6s2.68-.92,3.92-1.56c1.24-.64,2.45-1.37,3.61-2.18,1.16-.81,2.32-1.62,3.48-2.44,1.16-.82,2.35-1.6,3.55-2.34,1.21-.74,2.48-1.37,3.83-1.88v4.83Z"/>
          <path class="cls-1" d="m248.45,46.24c.61-.81,1.3-1.68,2.07-2.61.76-.93,1.56-1.79,2.38-2.6.82-.8,1.64-1.47,2.46-2,.82-.53,1.58-.8,2.3-.8.18,0,.38.03.61.1.22.07.44.19.64.37.2.18.37.43.51.75.13.32.2.74.2,1.25,0,1.02-.14,2.01-.43,2.98-.29.97-.6,1.93-.93,2.9s-.64,1.95-.92,2.96-.42,2.05-.42,3.15c0,.6.09,1.08.27,1.44.18.36.41.54.7.54.36,0,.74-.07,1.15-.22.41-.15.81-.34,1.21-.58.41-.24.8-.51,1.19-.82.39-.31.76-.63,1.1-.96.82-.76,1.63-1.63,2.43-2.61l.38,5.98c-.27.21-.61.47-1.02.79-.41.31-.87.65-1.37,1-.5.35-1.05.71-1.63,1.07-.58.36-1.17.68-1.76.96-.59.28-1.18.51-1.78.69-.59.18-1.16.27-1.7.27-.82,0-1.54-.22-2.15-.66-.61-.44-1.11-1-1.5-1.69-.39-.68-.68-1.43-.88-2.24-.19-.81-.29-1.57-.29-2.29,0-.48.06-1.02.19-1.61.13-.59.28-1.19.47-1.79.19-.6.4-1.18.63-1.75.23-.57.45-1.08.65-1.53.2-.45.38-.82.53-1.1s.25-.45.29-.5l-.47-.07c-.26.17-.69.58-1.29,1.26-.61.67-1.29,1.53-2.06,2.55-.76,1.03-1.55,2.18-2.37,3.46-.82,1.28-1.55,2.6-2.21,3.97-.33.67-.6,1.26-.81,1.76-.21.5-.42.91-.62,1.24-.2.32-.42.57-.66.73-.24.17-.55.25-.92.25-.49,0-.88-.14-1.17-.43-.28-.28-.5-.66-.65-1.13s-.25-1.01-.29-1.61c-.05-.6-.07-1.21-.07-1.84,0-1,.01-2.32.03-3.94s.09-3.43.21-5.41c.12-1.98.29-4.06.52-6.25s.54-4.35.96-6.48c.41-2.14.93-4.17,1.55-6.11.62-1.94,1.38-3.65,2.27-5.12s1.94-2.65,3.14-3.52c1.2-.87,2.58-1.3,4.14-1.3.81,0,1.47.12,1.99.36.52.24.93.58,1.24,1.01s.52.96.64,1.56c.12.61.18,1.28.18,2.03,0,1.11-.16,2.34-.47,3.69-.31,1.35-.73,2.75-1.25,4.2-.52,1.45-1.11,2.93-1.76,4.42-.66,1.49-1.33,2.94-2.02,4.34-.69,1.4-1.37,2.72-2.03,3.97-.67,1.24-1.26,2.34-1.76,3.28l.45.31Zm2-13.89c.88-2.29,1.52-4.23,1.92-5.8.4-1.57.6-2.74.6-3.48,0-1.14-.15-1.71-.45-1.71-.39,0-.97.64-1.73,1.91-.76,1.27-1.66,3.12-2.7,5.55-.26.82-.49,1.68-.71,2.56-.22.88-.41,1.76-.58,2.64s-.33,1.74-.47,2.59c-.14.85-.27,1.65-.37,2.42-.26,1.78-.45,3.53-.58,5.24.41-.94.85-1.97,1.33-3.08s.95-2.21,1.42-3.29c.46-1.09.9-2.11,1.31-3.08s.75-1.79,1.02-2.46Z"/>
          <path class="cls-1" d="m277.54,43.38c.43.87.76,1.79.98,2.75.22.97.33,1.89.33,2.78s-.1,1.77-.29,2.67c-.2.9-.48,1.77-.84,2.61-.37.84-.82,1.63-1.35,2.36-.53.73-1.14,1.37-1.82,1.91-.68.54-1.43.97-2.24,1.28-.81.31-1.67.47-2.59.47-1.32,0-2.45-.29-3.38-.87-.94-.58-1.7-1.33-2.3-2.26-.6-.93-1.04-1.98-1.31-3.15-.28-1.17-.42-2.35-.42-3.55,0-1.65.25-3.19.74-4.62.49-1.43,1.2-2.67,2.12-3.73s2.05-1.89,3.38-2.5,2.83-.91,4.5-.91c1.42,0,2.76.22,4,.66,1.24.44,2.41,1.03,3.49,1.78,1.09.74,2.1,1.59,3.03,2.55.94.96,1.81,1.95,2.62,2.97l-.43,3.17c-.4-.54-.95-1.12-1.64-1.75-.69-.63-1.42-1.24-2.19-1.84-.77-.6-1.53-1.16-2.28-1.7-.75-.53-1.39-.98-1.93-1.34l-.18.25Zm-6.95,12.52c.51,0,1-.26,1.48-.78.48-.52.9-1.17,1.26-1.96.36-.79.65-1.66.87-2.61.22-.95.33-1.86.33-2.73,0-.69-.05-1.33-.16-1.92-.11-.59-.26-1.1-.47-1.54s-.48-.78-.81-1.03c-.33-.25-.73-.38-1.19-.38-.61,0-1.2.26-1.75.79-.55.52-1.04,1.2-1.46,2.01-.42.82-.75,1.72-.99,2.71-.24.99-.36,1.94-.36,2.85,0,.63.06,1.22.18,1.77.12.55.31,1.04.56,1.45.26.41.59.74,1.01.99.42.25.92.37,1.51.37Z"/>
        </g>
        <g>
          <g>
            <path class="cls-1" d="m154.71,18.22c-.91.99-2.07,1.33-3.39,1.08-.46-.09-.92-.18-1.42-.27.69-1.15.89-2.39.81-3.7-.02.08-.02.16-.04.24-.2.96-.5,1.88-1.29,2.53-.56.46-1.21.69-1.93.67-1.42-.04-2.85-.1-4.28-.16-.04,0-.09-.02-.15-.02.7-1.35.89-2.77.81-4.25-.05.26-.09.54-.16.8-.06.26-.12.54-.24.78-.26.55-.51,1.12-.88,1.59-.57.74-1.38,1.03-2.32,1.05-.91.02-1.82.09-2.74.15-.75.05-1.42-.14-2.03-.6-1.21-.92-2.09-2.11-2.79-3.44-.03-.05-.06-.11-.09-.16.37,1.73,1.05,3.3,2.3,4.64-.34.09-.66.16-.97.25-.44.11-.87.25-1.32.35-.84.2-1.65.11-2.34-.4-1.77-1.34-3.03-3.03-3.45-5.26-.19-1.01-.09-2,.25-2.98.36-1.04,1.1-1.72,2.1-2.14.83-.35,1.7-.49,2.59-.53.06,0,.13.01.22.02-.24.78-.3,1.56-.16,2.34.03.16.07.31.11.46.14-.55.24-1.1.42-1.62.71-2.04,2.26-3.08,4.42-3.07,1.88,0,3.23.92,4.26,2.43.57.83,1.14,1.66,1.78,2.43s1.37,1.34,2.34,1.61c1,.28,1.91.03,2.84-.54-.34.06-.61.14-.88.16-1.09.12-1.99-.26-2.67-1.09-.58-.69-1.07-1.46-1.62-2.22,1.32-1.01,2.76-1.65,4.38-1.78,1.73-.15,3.3.35,4.76,1.33-.49.47-.86.99-1.01,1.42.13-.1.35-.25.59-.42.07-.05.16-.11.24-.17.13-.1.26-.19.4-.27.41-.24.86-.41,1.35-.47,1.27-.16,2.36.5,2.86,1.71.29.7.37,1.45.35,2.2-.03,2-.62,3.8-2,5.29Z"/>
            <path class="cls-1" d="m152.16,9.49c-.14.08-.27.17-.4.27-.08.05-.17.11-.24.17.08-.06.16-.11.24-.18.13-.09.26-.18.4-.26Z"/>
          </g>
          <path class="cls-1" d="m151.62,20.69c-.19.23-.36.39-.47.59-.15.25-.31.25-.57.19-1.68-.41-3.38-.64-5.11-.66-.5,0-1.01.03-1.5.04,2.22.19,4.42.42,6.51,1.34-.15.26-.3.48-.41.72-.09.18-.19.22-.38.18-.81-.13-1.63-.29-2.44-.37-.81-.07-1.62-.06-2.44-.09.82.15,1.63.22,2.45.34.82.13,1.63.31,2.41.64-.14.31-.27.6-.41.87-.03.06-.16.11-.23.11-.44-.06-.89-.14-1.33-.2-.27-.04-.53-.06-.79-.07-.27-.02-.54-.02-.8-.02-.25,0-.5.01-.76.02,1.25.12,2.48.24,3.68.67-.11.28-.2.53-.3.79-2.09-1.16-4.34-1.86-6.75-2.11-3.25-.33-6.31.24-9.16,1.7-.1-.51-.18-1.02-.3-1.53-.21-.9-.43-1.79-.65-2.73,6.52-2.04,13.09-1.87,19.74-.43Z"/>
        </g>
        <path class="cls-2" d="m280.1,54.58l14.44-21.2c1.18-1.74,1.82-3.43,3.82-2.42l-14.54,24.93c-.75,1.28,1.43,2.55,2.18,1.27l14.69-25.18,1.81,1.06-14.69,25.18c-.75,1.28,1.43,2.55,2.17,1.27l14.69-25.18,1.8,1.05-14.69,25.18c-.75,1.28,1.44,2.56,2.19,1.28l14.54-24.93c1.73,1.17.63,2.77-.3,4.64l-11.28,22.88c-2.69,4.62-7.03,5.88-10.83,4.69-.94,2.16-2.19,4.43-4.29,6.43l-3.88-3.29c1.7-2.12,2.62-3.75,3.72-5.55-3.02-2.79-4.34-7.34-1.56-12.1Z"/>
        <path class="cls-1" d="m207.72,112.22c-31.31,0-63.2-14.83-81.71-38.15-1.1-1.38-.87-3.4.52-4.5,1.39-1.1,3.4-.87,4.5.52,17.72,22.3,48.56,36.34,78.57,35.71,28.23-.57,53.25-13.86,70.45-37.43,1.04-1.43,3.04-1.74,4.47-.7,1.43,1.04,1.74,3.04.7,4.47-18.41,25.21-45.22,39.44-75.49,40.05-.66.01-1.33.02-2,.02Z"/>
      </g>
    </g>
  </g>
</svg>