<?xml version="1.0" encoding="UTF-8"?>
<svg id="Layer_2" data-name="Layer 2" xmlns="http://www.w3.org/2000/svg" viewBox="0 0 279.22 152.55">
  <defs>
    <style>
      .cls-1 {
        fill: #ffc533;
      }

      .cls-2, .cls-3 {
        fill: #d62402;
      }

      .cls-3 {
        fill-rule: evenodd;
      }
    </style>
  </defs>
  <g id="Layer_1-2" data-name="Layer 1">
    <g>
      <g>
        <path class="cls-2" d="m56.61,70.17c-.45.48-1.03,1.02-1.74,1.62-.7.61-1.49,1.22-2.37,1.83-.88.62-1.82,1.22-2.84,1.8-1.02.59-2.06,1.1-3.12,1.56-1.06.45-2.13.82-3.2,1.09-1.07.27-2.11.41-3.1.41-.69,0-1.39-.12-2.09-.36-.7-.24-1.34-.68-1.92-1.32-.57-.64-1.04-1.52-1.41-2.65-.37-1.13-.55-2.59-.55-4.38,0-.76.05-1.57.16-2.45.11-.88.25-1.82.42-2.84-1.21,2.45-2.58,4.6-4.11,6.48-1.53,1.87-3.15,3.44-4.87,4.71-1.72,1.27-3.5,2.22-5.34,2.87-1.84.65-3.68.97-5.52.97-2.01,0-3.92-.35-5.73-1.05-1.81-.7-3.4-1.75-4.79-3.15s-2.48-3.13-3.29-5.21-1.22-4.5-1.22-7.27c0-2.1.24-4.3.73-6.59.49-2.29,1.2-4.61,2.13-6.95.93-2.34,2.06-4.65,3.38-6.95s2.82-4.47,4.51-6.54c1.69-2.07,3.53-3.98,5.53-5.75s4.14-3.29,6.41-4.58c2.27-1.29,4.66-2.3,7.17-3.03,2.51-.74,5.12-1.1,7.82-1.1.74,0,1.33.06,1.77.18.44.12.78.27,1.01.45.23.18.37.37.44.57.06.19.1.37.1.52,0,.11,0,.21-.02.29s-.02.15-.02.19v.16c.59.35,1.18.56,1.78.63s1.2.14,1.79.19c.58.05,1.14.17,1.65.34s.97.51,1.36,1.02c.39.51.7,1.25.93,2.22.23.97.34,2.29.34,3.96,0,1.3-.13,2.76-.37,4.38s-.58,3.32-.99,5.1c-.41,1.77-.87,3.57-1.38,5.39-.51,1.82-1.02,3.58-1.53,5.29-.51,1.71-1,3.32-1.48,4.84-.48,1.52-.88,2.84-1.2,3.96-.06.95-.12,1.84-.16,2.66-.04.82-.06,1.68-.06,2.56,0,.69.02,1.26.05,1.7.03.44.09.8.18,1.05.09.26.21.44.36.54.15.1.35.15.59.15.43,0,.98-.11,1.64-.34.66-.23,1.36-.52,2.11-.88.75-.36,1.52-.76,2.34-1.2.81-.44,1.59-.89,2.34-1.33.75-.44,1.44-.85,2.09-1.22.65-.37,1.19-.67,1.62-.91l1.66,6.33Zm-15.35-41.97c-.76-.22-1.54-.37-2.35-.47-.81-.1-1.6-.15-2.35-.15-1.75,0-3.48.34-5.19,1.01-1.71.67-3.37,1.59-4.98,2.74-1.61,1.16-3.15,2.52-4.61,4.09-1.46,1.57-2.82,3.26-4.09,5.06-1.27,1.81-2.41,3.68-3.42,5.63-1.02,1.95-1.89,3.89-2.63,5.83-.74,1.94-1.3,3.82-1.69,5.65-.39,1.83-.59,3.51-.59,5.05,0,3.05.61,5.42,1.83,7.09,1.22,1.68,3.12,2.52,5.7,2.52,1.6,0,3.12-.34,4.56-1.01,1.44-.67,2.78-1.55,4.01-2.65s2.36-2.33,3.39-3.7c1.03-1.37,1.93-2.76,2.69-4.17.77-1.41,1.4-2.76,1.9-4.07.5-1.31.85-2.44,1.07-3.39l6.75-25.06Z"/>
        <path class="cls-2" d="m52.98,70.66c0-1.43.09-3.08.26-4.95.17-1.87.39-3.78.65-5.71.26-1.94.55-3.8.88-5.6s.64-3.33.94-4.61c.24-.99.7-1.83,1.38-2.5.68-.67,1.61-1.01,2.78-1.01s1.98.36,2.43,1.07.68,1.67.68,2.86c0,.32-.03.76-.1,1.32-.06.55-.15,1.16-.24,1.82-.1.66-.2,1.34-.31,2.04-.11.7-.21,1.35-.31,1.95-.1.6-.18,1.11-.24,1.56s-.1.74-.1.89h.65c.13-.24.34-.62.62-1.15.28-.53.61-1.14.97-1.83.37-.69.76-1.42,1.18-2.19.42-.77.82-1.5,1.18-2.21.37-.7.7-1.33,1.01-1.87.3-.54.53-.94.68-1.2.69-1.17,1.48-1.97,2.37-2.4.89-.43,1.87-.65,2.95-.65s1.94.45,2.58,1.36c.64.91.96,2.16.96,3.76,0,.24-.05.64-.15,1.2-.1.56-.22,1.23-.37,2.01-.15.78-.32,1.63-.5,2.56s-.35,1.88-.5,2.86c-.15.97-.28,1.94-.37,2.89-.1.95-.15,1.83-.15,2.63,0,1.34.17,2.45.5,3.31.34.87.86,1.3,1.57,1.3.32,0,.7-.1,1.12-.29.42-.19.88-.45,1.36-.76s.98-.68,1.49-1.09c.51-.41,1.01-.83,1.51-1.27,1.15-1.02,2.35-2.16,3.6-3.44l.55,7.27-1.62,1.23c-.89.67-1.79,1.34-2.71,2.01-.92.67-1.88,1.27-2.87,1.8-.99.53-2.03.96-3.12,1.3-1.08.34-2.22.5-3.41.5s-2.19-.86-3-2.58c-.81-1.72-1.22-4.24-1.22-7.55,0-1.3.09-2.7.26-4.2.17-1.5.39-3.12.65-4.85h-.52l-8.5,16.88c-.43.89-.92,1.49-1.46,1.82-.54.32-1.17.49-1.88.49-.89,0-1.6-.19-2.14-.57-.54-.38-.96-.89-1.25-1.53-.29-.64-.49-1.36-.58-2.18-.1-.81-.15-1.65-.15-2.52Z"/>
        <path class="cls-2" d="m78.91,77.44c0-.35.05-.96.15-1.83.1-.88.23-1.94.39-3.18.16-1.24.36-2.62.6-4.14.24-1.51.5-3.07.78-4.66s.58-3.17.91-4.74c.32-1.57.66-3.04,1.01-4.42.35-1.37.7-2.59,1.05-3.65s.71-1.88,1.05-2.47c.3-.5.66-.89,1.07-1.17.41-.28.86-.49,1.35-.62.49-.13,1-.21,1.53-.24s1.05-.05,1.57-.05c.76,0,1.3.23,1.64.68.34.45.5.93.5,1.43,0,.26-.06.67-.18,1.23-.12.56-.27,1.17-.44,1.82-.17.65-.35,1.27-.52,1.85-.17.59-.3,1.02-.39,1.3l-1.82,5.19c1.21-.19,2.38-.33,3.51-.41,1.13-.07,2.36-.22,3.7-.42,1.34-.2,2.86-.55,4.54-1.04,1.69-.49,3.7-1.25,6.04-2.29v6.23c-1.43.78-2.86,1.38-4.3,1.8-1.44.42-2.74.73-3.91.93-1.36.24-2.69.37-3.99.39.54,1.41,1.02,2.87,1.43,4.38.37,1.3.7,2.74.99,4.33.29,1.59.44,3.19.44,4.79,0,.28-.03.94-.08,1.96-.05,1.03-.18,2.23-.39,3.62-.2,1.39-.53,2.85-.97,4.4-.44,1.55-1.05,2.96-1.82,4.25s-1.73,2.35-2.89,3.2c-1.16.84-2.57,1.27-4.24,1.27-1.51,0-2.8-.44-3.86-1.33-1.06-.89-1.92-2.18-2.58-3.86-.66-1.69-1.14-3.75-1.43-6.2-.29-2.44-.44-5.23-.44-8.34Zm7.21-40.28c0-.5.11-1.06.32-1.69.22-.63.57-1.22,1.05-1.77s1.14-1.02,1.95-1.4,1.82-.57,3.04-.57c.76,0,1.47.09,2.14.26.67.17,1.26.44,1.75.8s.89.83,1.18,1.41c.29.58.44,1.28.44,2.08,0,.74-.12,1.45-.36,2.14-.24.69-.62,1.31-1.14,1.85s-1.17.98-1.96,1.32c-.79.34-1.74.5-2.84.5-1.9,0-3.31-.45-4.22-1.35-.91-.9-1.36-2.09-1.36-3.59Zm2.08,25.77c-.56,3.35-1.04,6.74-1.43,10.16-.39,3.42-.58,6.95-.58,10.58,0,1.19.08,2.18.23,2.97.15.79.34,1.43.57,1.92.23.49.45.83.68,1.04.23.21.43.31.6.31.71,0,1.28-.39,1.7-1.17.42-.78.74-1.74.94-2.89.21-1.15.34-2.39.39-3.72.05-1.33.08-2.55.08-3.65,0-.63-.05-1.34-.15-2.13-.1-.79-.22-1.61-.36-2.45-.14-.84-.31-1.7-.5-2.56s-.39-1.71-.58-2.53c-.48-1.9-1.01-3.86-1.59-5.88Z"/>
        <path class="cls-2" d="m124.81,53.13c.63,1.26,1.1,2.58,1.41,3.98.31,1.4.47,2.73.47,4.01s-.14,2.56-.42,3.86c-.28,1.3-.69,2.55-1.22,3.77-.53,1.21-1.18,2.35-1.95,3.41-.77,1.06-1.65,1.98-2.63,2.76-.98.78-2.06,1.4-3.23,1.85-1.17.45-2.41.68-3.73.68-1.9,0-3.53-.42-4.89-1.25-1.35-.83-2.46-1.92-3.33-3.26-.86-1.34-1.5-2.86-1.9-4.54-.4-1.69-.6-3.4-.6-5.13,0-2.38.36-4.6,1.07-6.67.71-2.07,1.74-3.86,3.07-5.39s2.96-2.73,4.89-3.6,4.09-1.31,6.49-1.31c2.06,0,3.98.32,5.78.96,1.8.64,3.48,1.49,5.05,2.56,1.57,1.07,3.03,2.3,4.38,3.68,1.35,1.39,2.61,2.81,3.78,4.29l-.62,4.58c-.58-.78-1.37-1.62-2.37-2.53-.99-.91-2.05-1.8-3.16-2.66-1.11-.87-2.21-1.68-3.29-2.45-1.08-.77-2.01-1.41-2.79-1.93l-.26.36Zm-10.03,18.08c.74,0,1.45-.37,2.14-1.12.69-.75,1.3-1.69,1.82-2.82.52-1.14.94-2.39,1.25-3.77.31-1.37.47-2.69.47-3.94,0-.99-.08-1.92-.23-2.78-.15-.85-.38-1.59-.68-2.22s-.69-1.13-1.17-1.49c-.48-.37-1.05-.55-1.72-.55-.89,0-1.73.38-2.53,1.14-.8.76-1.51,1.73-2.11,2.91-.61,1.18-1.08,2.48-1.43,3.91-.35,1.43-.52,2.8-.52,4.12,0,.91.09,1.76.26,2.56.17.8.44,1.5.81,2.09.37.6.85,1.07,1.46,1.43.61.36,1.33.54,2.17.54Z"/>
        <path class="cls-2" d="m186.39,66.47c-1.06.45-2.09,1.05-3.08,1.8-1,.75-2,1.56-3.02,2.45-1.02.89-2.07,1.82-3.16,2.81-1.09.99-2.27,1.96-3.54,2.92-1.27.96-2.65,1.88-4.14,2.76-1.49.88-3.14,1.64-4.95,2.31-1.81.66-3.8,1.18-5.97,1.57-2.17.39-4.58.58-7.22.58-2.92,0-5.56-.59-7.9-1.77-2.35-1.18-4.36-2.77-6.02-4.77s-2.95-4.33-3.85-6.98c-.9-2.65-1.35-5.44-1.35-8.36,0-1.99.22-4.13.65-6.41.43-2.28,1.05-4.61,1.87-6.98.81-2.37,1.8-4.73,2.97-7.09s2.49-4.62,3.98-6.78c1.48-2.16,3.11-4.17,4.89-6.02s3.67-3.46,5.68-4.84,4.13-2.45,6.36-3.23c2.23-.78,4.54-1.17,6.95-1.17,1.56,0,3.14.28,4.74.83,1.6.55,3.04,1.4,4.32,2.55s2.32,2.6,3.13,4.35c.81,1.75,1.22,3.82,1.22,6.2,0,1.6-.26,3.22-.76,4.85-.51,1.63-1.21,3.2-2.09,4.71-.89,1.51-1.93,2.92-3.13,4.24s-2.49,2.46-3.88,3.42c-1.38.96-2.82,1.73-4.32,2.29-1.49.56-2.99.84-4.48.84-1.97,0-3.44-.26-4.42-.8-.97-.53-1.46-1.29-1.46-2.29,0-.17,0-.38-.02-.62-.01-.24-.02-.49-.02-.75,0-.39.02-.8.07-1.22.04-.42.13-.81.26-1.15.13-.35.32-.63.57-.84.25-.22.59-.32,1.02-.32.26,0,.49.04.68.11.19.08.41.16.65.24s.53.17.86.24.76.11,1.28.11c1.38,0,2.79-.3,4.2-.91,1.42-.6,2.69-1.46,3.83-2.56,1.14-1.1,2.07-2.42,2.79-3.94s1.09-3.21,1.09-5.05c0-.97-.13-1.9-.39-2.78-.26-.88-.68-1.64-1.27-2.3-.58-.66-1.34-1.19-2.26-1.59-.92-.4-2.04-.6-3.36-.6-1.56,0-3.08.34-4.56,1.02s-2.91,1.61-4.27,2.78c-1.36,1.17-2.66,2.55-3.88,4.15-1.22,1.6-2.35,3.32-3.39,5.15s-1.97,3.73-2.81,5.71c-.83,1.98-1.54,3.96-2.13,5.92-.59,1.97-1.03,3.88-1.35,5.73-.31,1.85-.47,3.55-.47,5.11,0,2.23.28,4.17.83,5.83s1.34,3.04,2.35,4.14c1.02,1.1,2.26,1.93,3.73,2.47,1.47.54,3.13.81,4.97.81,2.29,0,4.43-.29,6.41-.86s3.87-1.33,5.66-2.26c1.8-.93,3.53-1.98,5.21-3.15,1.68-1.17,3.35-2.34,5.03-3.52,1.68-1.18,3.39-2.3,5.13-3.38,1.74-1.07,3.59-1.97,5.53-2.71v6.98Z"/>
        <path class="cls-2" d="m191.16,57.25c.89-1.17,1.88-2.42,2.99-3.77,1.1-1.34,2.25-2.59,3.44-3.75,1.19-1.16,2.37-2.12,3.55-2.89,1.18-.77,2.29-1.15,3.33-1.15.26,0,.55.05.88.15.32.1.63.28.92.54.29.26.54.62.73,1.09.19.47.29,1.07.29,1.8,0,1.47-.21,2.91-.62,4.3-.41,1.4-.86,2.79-1.35,4.19s-.93,2.82-1.33,4.27-.6,2.97-.6,4.54c0,.87.13,1.56.39,2.08.26.52.6.78,1.01.78.52,0,1.07-.11,1.65-.32.59-.22,1.17-.5,1.75-.84.59-.35,1.16-.74,1.72-1.18.56-.44,1.09-.9,1.59-1.38,1.19-1.1,2.36-2.36,3.51-3.77l.55,8.63c-.39.3-.88.68-1.48,1.14-.6.45-1.26.94-1.98,1.44-.73.51-1.51,1.02-2.35,1.54-.84.52-1.69.98-2.55,1.38-.86.4-1.71.73-2.56.99-.86.26-1.67.39-2.45.39-1.19,0-2.22-.32-3.1-.96-.88-.64-1.6-1.45-2.16-2.43-.56-.98-.98-2.06-1.27-3.23-.28-1.17-.42-2.27-.42-3.31,0-.69.09-1.47.28-2.32.18-.85.41-1.71.68-2.58.27-.86.57-1.71.91-2.53.34-.82.65-1.56.94-2.21.29-.65.55-1.18.76-1.59s.36-.65.42-.72l-.68-.1c-.37.24-.99.84-1.87,1.82-.88.97-1.87,2.2-2.97,3.69-1.1,1.48-2.25,3.15-3.42,5-1.18,1.85-2.25,3.76-3.2,5.73-.48.97-.86,1.82-1.17,2.55-.3.73-.6,1.32-.89,1.79-.29.47-.61.82-.96,1.05-.35.24-.79.36-1.33.36-.71,0-1.28-.2-1.69-.62-.41-.41-.72-.96-.94-1.64s-.36-1.46-.42-2.32c-.07-.87-.1-1.75-.1-2.66,0-1.45.02-3.35.05-5.7.03-2.35.13-4.95.31-7.81.17-2.86.42-5.86.75-9.02s.78-6.28,1.38-9.36c.6-3.08,1.34-6.03,2.24-8.83.9-2.8,1.99-5.27,3.28-7.4s2.8-3.83,4.53-5.08c1.73-1.25,3.72-1.88,5.97-1.88,1.17,0,2.13.17,2.87.52.75.35,1.34.83,1.78,1.46s.75,1.38.92,2.26c.17.88.26,1.86.26,2.94,0,1.6-.23,3.38-.68,5.32-.45,1.95-1.05,3.97-1.8,6.07-.75,2.1-1.6,4.23-2.55,6.38-.95,2.15-1.93,4.24-2.92,6.26-1,2.02-1.97,3.93-2.94,5.73-.96,1.8-1.81,3.38-2.55,4.74l.65.45Zm2.89-20.06c1.28-3.31,2.2-6.1,2.78-8.37.57-2.27.86-3.95.86-5.03,0-1.64-.22-2.47-.65-2.47-.56,0-1.4.92-2.5,2.76-1.1,1.84-2.4,4.51-3.89,8.02-.37,1.19-.71,2.42-1.02,3.7-.31,1.28-.6,2.55-.84,3.81s-.48,2.51-.68,3.73c-.21,1.22-.38,2.38-.54,3.49-.37,2.57-.65,5.1-.84,7.56.59-1.36,1.22-2.85,1.92-4.45s1.37-3.19,2.05-4.76c.67-1.57,1.3-3.05,1.9-4.45s1.09-2.58,1.48-3.55Z"/>
        <path class="cls-2" d="m233.17,53.13c.63,1.26,1.1,2.58,1.41,3.98.31,1.4.47,2.73.47,4.01s-.14,2.56-.42,3.86c-.28,1.3-.69,2.55-1.22,3.77-.53,1.21-1.18,2.35-1.95,3.41-.77,1.06-1.65,1.98-2.63,2.76-.98.78-2.06,1.4-3.23,1.85-1.17.45-2.41.68-3.73.68-1.9,0-3.53-.42-4.89-1.25-1.35-.83-2.46-1.92-3.33-3.26-.86-1.34-1.5-2.86-1.9-4.54-.4-1.69-.6-3.4-.6-5.13,0-2.38.36-4.6,1.07-6.67.71-2.07,1.74-3.86,3.07-5.39s2.96-2.73,4.89-3.6,4.09-1.31,6.49-1.31c2.06,0,3.98.32,5.78.96,1.8.64,3.48,1.49,5.05,2.56,1.57,1.07,3.03,2.3,4.38,3.68,1.35,1.39,2.61,2.81,3.78,4.29l-.62,4.58c-.58-.78-1.37-1.62-2.37-2.53-.99-.91-2.05-1.8-3.16-2.66-1.11-.87-2.21-1.68-3.29-2.45-1.08-.77-2.01-1.41-2.79-1.93l-.26.36Zm-10.03,18.08c.74,0,1.45-.37,2.14-1.12.69-.75,1.3-1.69,1.82-2.82.52-1.14.94-2.39,1.25-3.77.31-1.37.47-2.69.47-3.94,0-.99-.08-1.92-.23-2.78-.15-.85-.38-1.59-.68-2.22s-.69-1.13-1.17-1.49c-.48-.37-1.05-.55-1.72-.55-.89,0-1.73.38-2.53,1.14-.8.76-1.51,1.73-2.11,2.91-.61,1.18-1.08,2.48-1.43,3.91-.35,1.43-.52,2.8-.52,4.12,0,.91.09,1.76.26,2.56.17.8.44,1.5.81,2.09.37.6.85,1.07,1.46,1.43.61.36,1.33.54,2.17.54Z"/>
      </g>
      <g>
        <g>
          <path class="cls-1" d="m55.79,16.79c-1.32,1.43-2.98,1.92-4.89,1.57-.66-.13-1.33-.26-2.05-.39.99-1.65,1.28-3.45,1.17-5.34-.02.11-.04.23-.06.34-.29,1.39-.72,2.71-1.87,3.66-.81.67-1.74,1-2.79.97-2.05-.05-4.12-.15-6.18-.23-.06,0-.12-.02-.22-.03,1.01-1.95,1.29-4,1.18-6.13-.08.38-.13.78-.23,1.15-.09.38-.18.78-.35,1.13-.38.79-.74,1.62-1.27,2.3-.82,1.07-1.99,1.49-3.34,1.52-1.32.03-2.63.13-3.95.22-1.08.07-2.06-.21-2.93-.87-1.75-1.33-3.01-3.04-4.02-4.97-.04-.08-.08-.16-.13-.24.54,2.5,1.51,4.77,3.32,6.71-.49.13-.95.23-1.4.36-.63.16-1.26.36-1.9.51-1.21.29-2.38.16-3.37-.58-2.56-1.93-4.37-4.38-4.99-7.6-.27-1.45-.14-2.89.35-4.3.53-1.5,1.59-2.48,3.03-3.09,1.2-.51,2.46-.71,3.75-.77.09,0,.19.02.32.03-.35,1.13-.44,2.25-.24,3.38.04.23.11.45.16.67.2-.79.35-1.59.61-2.34C24.52,1.49,26.75-.01,29.87,0c2.72,0,4.66,1.33,6.15,3.51.82,1.2,1.65,2.39,2.57,3.51.89,1.09,1.99,1.94,3.37,2.33,1.45.41,2.76.04,4.1-.78-.5.09-.88.2-1.28.24-1.57.17-2.88-.38-3.86-1.58-.84-1-1.54-2.11-2.34-3.2,1.91-1.46,3.98-2.38,6.33-2.57,2.5-.21,4.77.5,6.87,1.93-.71.68-1.24,1.43-1.46,2.05.19-.14.5-.36.85-.6.11-.08.23-.16.35-.24.19-.14.38-.28.58-.39.6-.35,1.25-.59,1.95-.68,1.84-.23,3.41.72,4.12,2.47.41,1.02.53,2.09.51,3.18-.04,2.89-.9,5.48-2.89,7.64Z"/>
          <path class="cls-1" d="m52.1,4.19c-.2.12-.39.25-.58.39-.12.08-.24.16-.35.24.11-.09.23-.16.35-.25.19-.13.38-.26.58-.38Z"/>
        </g>
        <path class="cls-2" d="m51.32,20.35c-.27.34-.52.56-.69.85-.21.35-.45.37-.82.28-2.43-.59-4.88-.93-7.38-.95-.73,0-1.46.04-2.17.06,3.2.27,6.39.6,9.4,1.93-.21.38-.43.7-.59,1.04-.13.26-.27.31-.55.26-1.17-.19-2.35-.42-3.53-.53-1.17-.1-2.35-.08-3.52-.13,1.18.22,2.36.32,3.54.49,1.18.18,2.35.45,3.48.92-.21.44-.39.86-.59,1.26-.05.08-.23.16-.33.15-.64-.09-1.28-.2-1.92-.29-.38-.05-.77-.09-1.14-.1-.39-.03-.77-.03-1.15-.03-.36,0-.73.02-1.09.03,1.8.17,3.58.35,5.31.97-.15.4-.29.77-.43,1.13-3.03-1.68-6.27-2.69-9.75-3.04-4.7-.47-9.11.34-13.23,2.46-.14-.74-.27-1.47-.43-2.21-.3-1.29-.62-2.59-.93-3.94,9.42-2.94,18.9-2.69,28.51-.62Z"/>
      </g>
      <path class="cls-3" d="m236.88,69.3l20.86-30.61c1.7-2.51,2.63-4.95,5.52-3.5l-20.99,36c-1.08,1.85,2.06,3.69,3.14,1.83l21.21-36.37,2.61,1.52-21.21,36.37c-1.08,1.85,2.06,3.69,3.14,1.83l21.21-36.37,2.6,1.51-21.21,36.37c-1.08,1.85,2.08,3.7,3.16,1.84l20.99-36c2.49,1.69.91,4.01-.43,6.7l-16.29,33.04c-3.89,6.67-10.15,8.49-15.64,6.78-1.36,3.12-3.16,6.39-6.19,9.29l-5.6-4.75c2.46-3.06,3.78-5.42,5.38-8.02-4.37-4.04-6.26-10.61-2.26-17.47Z"/>
      <path class="cls-2" d="m132.33,152.55c-45.21,0-91.27-21.43-118.01-55.1-1.59-2-1.25-4.91.74-6.49,2-1.59,4.91-1.25,6.49.74,25.58,32.21,70.13,52.45,113.47,51.58,40.77-.83,76.9-20.02,101.74-54.05,1.5-2.06,4.39-2.51,6.46-1.01,2.06,1.51,2.51,4.4,1.01,6.46-26.59,36.41-65.3,56.96-109.02,57.84-.96.02-1.93.03-2.89.03Z"/>
    </g>
  </g>
</svg>