<?xml version="1.0" encoding="UTF-8"?>
<svg id="Layer_2" data-name="Layer 2" xmlns="http://www.w3.org/2000/svg" viewBox="0 0 180.86 206.26">
  <defs>
    <style>
      .cls-1 {
        fill: #fff;
      }
    </style>
  </defs>
  <g id="Layer_1-2" data-name="Layer 1">
    <g>
      <path class="cls-1" d="m63.53,10.46c-52.09,39.22-19.12,122.86,24.43,195.8-5.67-26.44-34.87-115.9,2.97-152.25,19.83-19.05,54.45-24.88,84.83,24.06C158.6-12.88,86.76-7.04,63.53,10.46Z"/>
      <path class="cls-1" d="m53.28,13.61C-.18,39.1-7.62,83.01,5.84,117c14.22,35.93,43.87,51.4,66.21,74.35-23.76-39.48-34.77-66.31-39.77-91.23-8.66-43.12,3.75-72.39,21.01-86.51Z"/>
      <path class="cls-1" d="m84.42,155.91c-4.88-30.37-13.63-91.9,26.5-105.12,37.66-12.41,77.18,30.72,68.8,83.13-5.78,36.16-23.47,49.54-25.36,51.74,18.47-26.84,21.92-72,.85-93.6-21.96-22.51-47.26,2.49-48.54,29.07-1.15,23.76-14.22,32.89-22.25,34.78Z"/>
    </g>
  </g>
</svg>